<svg width="35" height="30" viewBox="0 0 35 30" fill="none" xmlns="http://www.w3.org/2000/svg">
<g clip-path="url(#clip0_66_301)">
<g filter="url(#filter0_d_66_301)">
<path d="M2.39779 24.8088C1.21601 24.8088 0.000823975 25.7558 0.000823975 27.4134C0.000823975 28.9288 1.06925 29.9991 2.39779 29.9991C3.49442 29.9991 3.98318 29.263 3.98318 29.263V29.5839C3.98318 29.7355 4.12656 29.9047 4.30403 29.9047H5.09673V24.9221H3.98318V25.5544C3.98318 25.5544 3.49033 24.8088 2.39779 24.8088ZM2.59615 25.8277C3.569 25.8277 4.07932 26.6833 4.07932 27.413C4.07932 28.2259 3.47342 28.9979 2.59822 28.9979C1.8666 28.9979 1.13373 28.4053 1.13373 27.4023C1.13373 26.4969 1.76441 25.8277 2.59615 25.8277Z" fill="white"/>
<path d="M6.6444 29.9048C6.47331 29.9048 6.32355 29.7821 6.32355 29.5839V24.9221H7.43709V25.5387C7.68942 25.1595 8.18239 24.8074 8.93907 24.8074C10.1758 24.8074 10.8344 25.7932 10.8344 26.7151V29.9048H10.0605C9.85764 29.9048 9.72082 29.7349 9.72082 29.5651V26.9605C9.72082 26.4495 9.40773 25.8289 8.68364 25.8289C7.90233 25.8289 7.4371 26.5673 7.4371 27.2625V29.9048L6.6444 29.9048Z" fill="white"/>
<path d="M14.0805 24.8088C12.8988 24.8088 11.6836 25.7558 11.6836 27.4133C11.6836 28.9287 12.752 29.999 14.0805 29.999C15.1772 29.999 15.6659 29.2629 15.6659 29.2629V29.5838C15.6659 29.7354 15.8093 29.9047 15.9868 29.9047H16.7795V22.4307H15.6659V25.5543C15.6659 25.5543 15.1731 24.8088 14.0805 24.8088ZM14.2789 25.8276C15.2518 25.8276 15.7621 26.6832 15.7621 27.413C15.7621 28.2258 15.1562 28.9978 14.281 28.9978C13.5494 28.9978 12.8165 28.4052 12.8165 27.4022C12.8165 26.4968 13.4472 25.8276 14.2789 25.8276Z" fill="white"/>
<path d="M18.3272 29.9047C18.1561 29.9047 18.0063 29.782 18.0063 29.5839V24.9221H19.1199V25.7525C19.3115 25.2873 19.7251 24.8655 20.4599 24.8655C20.6647 24.8655 20.8562 24.9032 20.8562 24.9032V26.0545C20.8562 26.0545 20.6171 25.9601 20.3278 25.9601C19.5465 25.9601 19.1199 26.6985 19.1199 27.3937V29.9047H18.3272Z" fill="white"/>
<path d="M27.613 29.9048C27.4419 29.9048 27.2921 29.7821 27.2921 29.5839V24.9221H28.4057V29.9048L27.613 29.9048Z" fill="white"/>
<path d="M31.6708 24.8088C30.489 24.8088 29.2738 25.7558 29.2738 27.4133C29.2738 28.9287 30.3422 29.999 31.6708 29.999C32.7674 29.999 33.2562 29.2629 33.2562 29.2629V29.5838C33.2562 29.7354 33.3995 29.9047 33.577 29.9047H34.3697V22.4307H33.2562V25.5543C33.2562 25.5543 32.7633 24.8088 31.6708 24.8088ZM31.8691 25.8276C32.842 25.8276 33.3523 26.6832 33.3523 27.413C33.3523 28.2258 32.7464 28.9978 31.8712 28.9978C31.1396 28.9978 30.4067 28.4052 30.4067 27.4022C30.4067 26.4968 31.0374 25.8276 31.8691 25.8276Z" fill="white"/>
<path d="M27.8411 23.8476C28.2477 23.8476 28.5773 23.5179 28.5773 23.1113C28.5773 22.7046 28.2477 22.375 27.8411 22.375C27.4344 22.375 27.1048 22.7046 27.1048 23.1113C27.1048 23.5179 27.4344 23.8476 27.8411 23.8476Z" fill="white"/>
<path d="M23.793 24.8071C22.5554 24.8071 21.1956 25.731 21.1956 27.4045C21.1956 28.9295 22.3538 29.9992 23.7903 29.9992C25.5607 29.9992 26.4251 28.5761 26.4251 27.4142C26.4251 25.9884 25.312 24.8071 23.793 24.8071ZM23.7971 25.847C24.6529 25.847 25.2913 26.5368 25.2913 27.4076C25.2913 28.2936 24.6136 28.9772 23.7996 28.9772C23.044 28.9772 22.3094 28.3622 22.3094 27.4225C22.3094 26.4672 23.008 25.847 23.7971 25.847Z" fill="white"/>
</g>
<g filter="url(#filter1_d_66_301)">
<path d="M25.5728 5.80251L28.4219 0.867092C28.5826 0.59041 28.4854 0.238945 28.2125 0.0781698C27.9395 -0.0826032 27.5843 0.0108677 27.4273 0.287551L24.5408 5.28653C22.3386 4.28075 19.8596 3.7199 17.1938 3.7199C14.5279 3.7199 12.049 4.28075 9.8467 5.28653L6.96023 0.287551C6.79945 0.0108677 6.44799 -0.0826032 6.17131 0.0781698C5.89462 0.238945 5.80115 0.59041 5.96192 0.867092L8.81101 5.80251C3.89802 8.46466 0.570336 13.4375 0.0207214 19.259H34.3668C33.8172 13.4374 30.4895 8.4646 25.5728 5.80251ZM9.3083 14.4358C8.5119 14.4358 7.8688 13.7889 7.8688 12.9963C7.8688 12.1999 8.51564 11.5568 9.3083 11.5568C10.1047 11.5568 10.7478 12.2036 10.7478 12.9963C10.7515 13.7889 10.1047 14.4358 9.3083 14.4358ZM25.0755 14.4358C24.2791 14.4358 23.636 13.7889 23.636 12.9963C23.636 12.1999 24.2829 11.5568 25.0755 11.5568C25.8719 11.5568 26.515 12.2036 26.515 12.9963C26.5188 13.7889 25.8719 14.4358 25.0755 14.4358Z" fill="white"/>
</g>
</g>
<defs>
<filter id="filter0_d_66_301" x="-19.9992" y="6.375" width="74.3689" height="47.6243" filterUnits="userSpaceOnUse" color-interpolation-filters="sRGB">
<feFlood flood-opacity="0" result="BackgroundImageFix"/>
<feColorMatrix in="SourceAlpha" type="matrix" values="0 0 0 0 0 0 0 0 0 0 0 0 0 0 0 0 0 0 127 0" result="hardAlpha"/>
<feOffset dy="4"/>
<feGaussianBlur stdDeviation="10"/>
<feComposite in2="hardAlpha" operator="out"/>
<feColorMatrix type="matrix" values="0 0 0 0 0 0 0 0 0 0 0 0 0 0 0 0 0 0 0.15 0"/>
<feBlend mode="normal" in2="BackgroundImageFix" result="effect1_dropShadow_66_301"/>
<feBlend mode="normal" in="SourceGraphic" in2="effect1_dropShadow_66_301" result="shape"/>
</filter>
<filter id="filter1_d_66_301" x="-19.9793" y="-16.0005" width="74.3461" height="59.2595" filterUnits="userSpaceOnUse" color-interpolation-filters="sRGB">
<feFlood flood-opacity="0" result="BackgroundImageFix"/>
<feColorMatrix in="SourceAlpha" type="matrix" values="0 0 0 0 0 0 0 0 0 0 0 0 0 0 0 0 0 0 127 0" result="hardAlpha"/>
<feOffset dy="4"/>
<feGaussianBlur stdDeviation="10"/>
<feComposite in2="hardAlpha" operator="out"/>
<feColorMatrix type="matrix" values="0 0 0 0 0 0 0 0 0 0 0 0 0 0 0 0 0 0 0.15 0"/>
<feBlend mode="normal" in2="BackgroundImageFix" result="effect1_dropShadow_66_301"/>
<feBlend mode="normal" in="SourceGraphic" in2="effect1_dropShadow_66_301" result="shape"/>
</filter>
<clipPath id="clip0_66_301">
<rect width="34.369" height="30" fill="white"/>
</clipPath>
</defs>
</svg>
