<svg width="46" height="30" viewBox="0 0 46 30" fill="none" xmlns="http://www.w3.org/2000/svg">
<g clip-path="url(#clip0_66_313)">
<g filter="url(#filter0_d_66_313)">
<path d="M5.7222 23.3114H8.58471V11.1258H5.7222V23.3114ZM7.14772 9.52775C8.04441 9.52775 8.74566 8.83798 8.74566 7.97581C8.74566 7.1021 8.04441 6.41235 7.14772 6.41235C6.26253 6.41235 5.56128 7.10213 5.56128 7.97581C5.56128 8.83801 6.26253 9.52775 7.14772 9.52775ZM18.1153 6.44676C13.2756 6.44676 10.2405 9.74612 10.2405 15.0229C10.2405 20.2996 13.2753 23.5875 18.1153 23.5875C22.9435 23.5875 25.9786 20.2996 25.9786 15.0229C25.9786 9.74612 22.9438 6.44676 18.1153 6.44676ZM18.1153 8.97589C21.0697 8.97589 22.955 11.3211 22.955 15.0228C22.955 18.713 21.0697 21.0582 18.1153 21.0582C15.1494 21.0582 13.2756 18.7131 13.2756 15.0228C13.2756 11.3211 15.1494 8.97589 18.1153 8.97589ZM27.1861 18.6441C27.3126 21.7022 29.8187 23.5874 33.6353 23.5874C37.6475 23.5874 40.1767 21.6101 40.1767 18.4602C40.1767 15.9886 38.7511 14.5975 35.3829 13.8274L33.4745 13.3905C31.4397 12.9077 30.6005 12.2639 30.6005 11.1603C30.6005 9.78079 31.8651 8.86111 33.7389 8.86111C35.6357 8.86111 36.9347 9.79229 37.0727 11.3442H39.9007C39.8317 8.42426 37.4176 6.44685 33.762 6.44685C30.1521 6.44685 27.5885 8.43565 27.5885 11.3787C27.5885 13.7469 29.037 15.2184 32.0948 15.9197L34.2445 16.4255C36.3368 16.9198 37.1875 17.6096 37.1875 18.8052C37.1875 20.1847 35.7965 21.1733 33.7963 21.1733C31.773 21.1733 30.2442 20.1732 30.0602 18.6442L27.1861 18.6441Z" fill="white"/>
</g>
</g>
<defs>
<filter id="filter0_d_66_313" x="-14.4387" y="-9.58765" width="74.6154" height="57.175" filterUnits="userSpaceOnUse" color-interpolation-filters="sRGB">
<feFlood flood-opacity="0" result="BackgroundImageFix"/>
<feColorMatrix in="SourceAlpha" type="matrix" values="0 0 0 0 0 0 0 0 0 0 0 0 0 0 0 0 0 0 127 0" result="hardAlpha"/>
<feOffset dy="4"/>
<feGaussianBlur stdDeviation="10"/>
<feComposite in2="hardAlpha" operator="out"/>
<feColorMatrix type="matrix" values="0 0 0 0 0 0 0 0 0 0 0 0 0 0 0 0 0 0 0.15 0"/>
<feBlend mode="normal" in2="BackgroundImageFix" result="effect1_dropShadow_66_313"/>
<feBlend mode="normal" in="SourceGraphic" in2="effect1_dropShadow_66_313" result="shape"/>
</filter>
<clipPath id="clip0_66_313">
<rect width="45" height="30" fill="white" transform="translate(0.368988)"/>
</clipPath>
</defs>
</svg>
